<?xml version="1.0" encoding="iso-8859-1"?>
<!-- Uploaded to: SVG Repo, www.svgrepo.com, Generator: SVG Repo Mixer Tools -->
<svg version="1.1" id="Layer_1" xmlns="http://www.w3.org/2000/svg" xmlns:xlink="http://www.w3.org/1999/xlink" 
	 viewBox="0 0 512 512" xml:space="preserve">
<rect x="22.756" y="73.956" style="fill:#0052B4;" width="466.489" height="312.889"/>
<polygon style="fill:#003778;" points="256.168,73.956 256.279,386.844 489.244,386.844 489.244,73.956 "/>
<path style="fill:#93C7EF;" d="M0,375.467v17.067c0,25.095,20.416,45.511,45.511,45.511h420.978
	c25.095,0,45.511-20.416,45.511-45.511v-17.067H0z"/>
<path style="fill:#78B9EB;" d="M256.279,375.467v62.578h210.21c25.095,0,45.511-20.416,45.511-45.511v-17.067H256.279z"/>
<g>
	<path style="fill:#FFFFFF;" d="M170.993,165.104c-2.512-2.867-5.531-5.148-8.969-6.781c-3.452-1.635-7.25-2.464-11.29-2.464
		c-4.041,0-7.84,0.829-11.291,2.466c-3.438,1.632-6.456,3.912-8.969,6.781c-2.507,2.858-4.492,6.287-5.898,10.193
		c-1.403,3.891-2.115,8.207-2.115,12.827c0,4.621,0.711,8.936,2.115,12.827c1.406,3.905,3.391,7.335,5.898,10.194
		c2.517,2.873,5.538,5.138,8.978,6.733c3.446,1.599,7.242,2.41,11.282,2.41c4.039,0,7.835-0.811,11.282-2.41
		c3.441-1.596,6.461-3.862,8.978-6.733c2.507-2.859,4.491-6.29,5.898-10.194c1.404-3.896,2.116-8.212,2.116-12.827
		c0-4.616-0.712-8.932-2.116-12.827C175.483,171.393,173.499,167.962,170.993,165.104z M146.141,179.062
		c1.191-2.092,2.694-3.111,4.592-3.111c1.76,0,3.196,1.018,4.387,3.111c1.294,2.276,1.95,5.325,1.95,9.064
		c0,3.736-0.655,6.766-1.946,9.006c-1.192,2.064-2.629,3.066-4.392,3.066c-1.901,0-3.405-1.002-4.597-3.067
		c-1.291-2.233-1.946-5.263-1.946-9.004C144.191,184.384,144.847,181.334,146.141,179.062z"/>
	<path style="fill:#FFFFFF;" d="M235.122,158.521h-21.708l-0.314,0.63c-0.229,0.457-0.832,1.271-2.409,2.538
		c-1.352,1.088-2.871,2.123-4.517,3.077c-1.654,0.96-3.334,1.8-4.989,2.496c-1.942,0.816-3.004,0.986-3.553,0.986h-1.138v20.093
		h1.138c1.386,0,2.959-0.218,4.677-0.649c1.692-0.423,3.386-0.993,5.034-1.695c1.646-0.7,3.16-1.465,4.496-2.276
		c0.408-0.247,0.788-0.498,1.14-0.754v16.615h-14.54v19.682h49.687v-19.682h-13.005V158.521z"/>
	<path style="fill:#FFFFFF;" d="M269.586,187.694c1.692-0.423,3.386-0.993,5.034-1.695c1.646-0.7,3.16-1.465,4.496-2.276
		c0.408-0.247,0.788-0.498,1.14-0.754v16.615h-14.54v19.682h49.687v-19.682h-13.006v-41.062H280.69l-0.314,0.63
		c-0.229,0.457-0.832,1.271-2.409,2.538c-1.352,1.088-2.871,2.123-4.517,3.077c-1.654,0.96-3.334,1.8-4.989,2.496
		c-1.942,0.816-3.004,0.986-3.553,0.986h-1.138v20.093h1.138C266.293,188.342,267.868,188.124,269.586,187.694z"/>
	<path style="fill:#FFFFFF;" d="M348.141,217.881c3.446,1.599,7.242,2.41,11.282,2.41c4.039,0,7.835-0.811,11.282-2.41
		c3.441-1.596,6.461-3.862,8.978-6.733c2.507-2.859,4.491-6.29,5.898-10.194c1.404-3.896,2.116-8.212,2.116-12.827
		c0-4.616-0.712-8.932-2.116-12.827c-1.409-3.906-3.393-7.336-5.898-10.193c-2.512-2.867-5.531-5.148-8.969-6.781
		c-3.452-1.635-7.25-2.464-11.29-2.464c-4.041,0-7.84,0.829-11.291,2.466c-3.438,1.632-6.456,3.912-8.969,6.781
		c-2.507,2.858-4.492,6.287-5.898,10.193c-1.403,3.891-2.115,8.207-2.115,12.827c0,4.621,0.711,8.936,2.115,12.827
		c1.406,3.905,3.391,7.335,5.898,10.194C341.679,214.021,344.7,216.286,348.141,217.881z M354.831,179.062
		c1.191-2.092,2.694-3.111,4.592-3.111c1.76,0,3.196,1.018,4.387,3.111c1.294,2.276,1.95,5.325,1.95,9.064
		c0,3.736-0.655,6.766-1.946,9.006c-1.192,2.064-2.629,3.066-4.392,3.066c-1.901,0-3.405-1.002-4.597-3.067
		c-1.291-2.233-1.946-5.263-1.946-9.004C352.881,184.384,353.537,181.334,354.831,179.062z"/>
	<path style="fill:#FFFFFF;" d="M170.993,238.377c-2.512-2.867-5.531-5.15-8.969-6.781c-3.452-1.635-7.25-2.464-11.29-2.464
		c-4.041,0-7.84,0.829-11.291,2.466c-3.438,1.632-6.456,3.913-8.969,6.781c-2.507,2.858-4.492,6.287-5.898,10.193
		c-1.403,3.891-2.115,8.207-2.115,12.827s0.711,8.936,2.115,12.826c1.406,3.906,3.391,7.336,5.898,10.194
		c2.517,2.873,5.538,5.138,8.978,6.733c3.446,1.6,7.242,2.41,11.282,2.41c4.039,0,7.835-0.81,11.282-2.41
		c3.441-1.596,6.461-3.862,8.978-6.733c2.507-2.859,4.491-6.29,5.898-10.194c1.404-3.896,2.116-8.211,2.116-12.826
		c0-4.616-0.712-8.932-2.116-12.827C175.483,244.665,173.499,241.235,170.993,238.377z M146.141,252.335
		c1.191-2.094,2.694-3.111,4.592-3.111c1.76,0,3.196,1.017,4.387,3.111c1.294,2.276,1.95,5.325,1.95,9.064
		c0,3.736-0.655,6.766-1.946,9.005c-1.192,2.064-2.629,3.066-4.392,3.066c-1.901,0-3.405-1.002-4.597-3.067
		c-1.291-2.233-1.946-5.263-1.946-9.004C144.191,257.657,144.847,254.607,146.141,252.335z"/>
	<path style="fill:#FFFFFF;" d="M235.122,231.794h-21.708l-0.314,0.63c-0.229,0.457-0.832,1.271-2.409,2.54
		c-1.352,1.088-2.871,2.122-4.517,3.077c-1.654,0.959-3.334,1.799-4.989,2.495c-1.942,0.816-3.004,0.986-3.553,0.986h-1.138v20.093
		h1.138c1.386,0,2.959-0.218,4.677-0.647c1.692-0.423,3.386-0.993,5.034-1.695c1.646-0.7,3.16-1.465,4.496-2.276
		c0.408-0.247,0.788-0.498,1.14-0.754v16.615h-14.54v19.684h49.687v-19.684h-13.005V231.794z"/>
	<path style="fill:#FFFFFF;" d="M312.406,238.377c-2.512-2.867-5.531-5.15-8.969-6.781c-3.452-1.635-7.25-2.464-11.29-2.464
		c-4.041,0-7.84,0.829-11.291,2.466c-3.438,1.632-6.456,3.913-8.969,6.781c-2.507,2.858-4.492,6.287-5.898,10.193
		c-1.403,3.891-2.115,8.207-2.115,12.827s0.711,8.936,2.115,12.826c1.406,3.906,3.391,7.336,5.898,10.194
		c2.517,2.873,5.538,5.138,8.978,6.733c3.446,1.6,7.242,2.41,11.282,2.41c4.039,0,7.835-0.81,11.282-2.41
		c3.441-1.596,6.461-3.862,8.978-6.733c2.507-2.859,4.491-6.29,5.898-10.194c1.404-3.896,2.116-8.211,2.116-12.826
		c0-4.616-0.712-8.932-2.116-12.827C316.896,244.665,314.912,241.235,312.406,238.377z M287.554,252.335
		c1.191-2.094,2.694-3.111,4.592-3.111c1.76,0,3.196,1.017,4.387,3.111c1.294,2.276,1.95,5.325,1.95,9.064
		c0,3.736-0.655,6.766-1.946,9.005c-1.192,2.064-2.629,3.066-4.392,3.066c-1.901,0-3.405-1.002-4.597-3.067
		c-1.291-2.233-1.946-5.263-1.946-9.004C285.604,257.657,286.26,254.607,287.554,252.335z"/>
	<path style="fill:#FFFFFF;" d="M376.535,272.856v-41.062h-21.708l-0.314,0.63c-0.229,0.457-0.832,1.271-2.409,2.54
		c-1.352,1.088-2.871,2.122-4.517,3.077c-1.654,0.959-3.334,1.799-4.989,2.495c-1.942,0.816-3.004,0.986-3.553,0.986h-1.138v20.093
		h1.138c1.386,0,2.959-0.218,4.677-0.647c1.692-0.423,3.386-0.993,5.034-1.695c1.646-0.7,3.16-1.465,4.496-2.276
		c0.408-0.247,0.788-0.498,1.14-0.754v16.615h-14.539v19.684h49.687v-19.684h-13.006V272.856z"/>
</g>
</svg>