<?xml version="1.0" encoding="iso-8859-1"?>
<!-- Uploaded to: SVG Repo, www.svgrepo.com, Generator: SVG Repo Mixer Tools -->
<svg version="1.1" id="Layer_1" xmlns="http://www.w3.org/2000/svg" xmlns:xlink="http://www.w3.org/1999/xlink" 
	 viewBox="0 0 512 512" xml:space="preserve">
<rect y="5.898" style="fill:#C9E8FA;" width="471.249" height="403.456"/>
<rect y="5.898" style="fill:#67BFFF;" width="471.249" height="80.906"/>
<rect x="235.624" y="5.898" style="fill:#B6E0F7;" width="235.624" height="403.456"/>
<rect x="235.624" y="5.898" style="fill:#0088FF;" width="235.624" height="80.906"/>
<g>
	<rect x="358.64" y="33.375" style="fill:#F4F4F4;" width="20.607" height="20.607"/>
	<rect x="390.928" y="33.375" style="fill:#F4F4F4;" width="20.607" height="20.607"/>
	<rect x="423.205" y="33.375" style="fill:#F4F4F4;" width="20.607" height="20.607"/>
</g>
<rect x="137.362" y="161.802" style="fill:#67BFFF;" width="196.514" height="31.347"/>
<rect x="83.592" y="226.847" style="fill:#FFFFFF;" width="305.246" height="57.135"/>
<rect x="235.624" y="161.802" style="fill:#0088FF;" width="98.252" height="31.347"/>
<rect x="235.624" y="226.847" style="fill:#D9D8DB;" width="153.213" height="57.135"/>
<path style="fill:#FD7052;" d="M512,400.703c0,37.972-20.083,71.252-50.197,89.799v0.01c-16.05,9.885-34.962,15.59-55.202,15.59
	h-0.157c-0.199,0-0.397,0-0.596-0.01c-19.968-0.136-38.599-5.82-54.45-15.6c-6.76-4.159-13.019-9.07-18.651-14.608
	c-16.927-16.635-28.264-38.933-30.929-63.843c-0.397-3.72-0.616-7.502-0.616-11.337c0-31.587,13.908-59.925,35.913-79.245
	c0.24-0.209,0.481-0.418,0.721-0.616c8.579-7.398,18.369-13.427,29.017-17.774c12.048-4.901,25.203-7.659,38.996-7.743
	c0.251-0.01,0.502-0.01,0.752-0.01C464.812,295.314,512,342.491,512,400.703z"/>
<path style="fill:#FF4F18;" d="M512,400.703c0,37.972-20.083,71.252-50.197,89.799v0.01c-16.05,9.885-34.962,15.59-55.202,15.59
	h-0.157c-0.199,0-0.397,0-0.596-0.01V295.325c0.251-0.01,0.502-0.01,0.752-0.01C464.812,295.314,512,342.491,512,400.703z"/>
<path style="fill:#0088FF;" d="M461.052,436.522v53.99c-16.05,9.885-34.962,15.59-55.202,15.59h-0.157l0.073-69.58l0.073-67.594
	l0.031-28.62l5.987,10.428l10.439,18.192l34.879,60.834L461.052,436.522z"/>
<path style="fill:#67BFFF;" d="M405.871,340.297v0.01l-0.031,28.62l-0.073,67.594l-0.073,69.58c-0.199,0-0.397,0-0.596-0.01
	c-19.968-0.136-38.599-5.82-54.45-15.6v-53.979l3.971-6.938l34.774-60.646l15.705-27.355l0.752-1.306L405.871,340.297z"/>
<polygon style="fill:#FFC473;" points="350.645,436.522 350.645,436.514 354.616,429.576 389.398,368.93 405.845,340.266 
	405.87,340.303 422.292,368.93 457.179,429.758 461.053,436.522 "/>
<polygon style="fill:#FFDBA8;" points="350.645,436.522 350.645,436.514 354.616,429.576 389.398,368.93 405.845,340.266 
	405.87,340.303 405.771,436.522 "/>
<polygon style="fill:#3C3A41;" points="389.401,368.927 405.845,340.266 405.868,340.301 422.288,368.927 "/>
<polygon style="fill:#57555C;" points="405.837,368.927 389.401,368.927 405.845,340.266 405.868,340.301 "/>
</svg>